<?xml version="1.0" encoding="UTF-8" standalone="no"?>
<!DOCTYPE svg PUBLIC "-//W3C//DTD SVG 1.1//EN"
 "http://www.w3.org/Graphics/SVG/1.1/DTD/svg11.dtd">
<!-- Generated by graphviz version 2.40.1 (20161225.0304)
 -->
<!-- Title: finite_state_machine Pages: 1 -->
<svg width="281pt" height="192pt"
 viewBox="0.00 0.00 281.40 192.00" xmlns="http://www.w3.org/2000/svg" xmlns:xlink="http://www.w3.org/1999/xlink">
<g id="graph0" class="graph" transform="scale(1 1) rotate(0) translate(4 188)">
<title>finite_state_machine</title>
<polygon fill="#ffffff" stroke="transparent" points="-4,4 -4,-188 277.3968,-188 277.3968,4 -4,4"/>
<!-- 3 -->
<g id="node1" class="node">
<title>3</title>
<ellipse fill="none" stroke="#000000" cx="97.3968" cy="-130" rx="18" ry="18"/>
<text text-anchor="middle" x="97.3968" y="-126.3" font-family="Times,serif" font-size="14.00" fill="#000000">3</text>
</g>
<!-- 7 -->
<g id="node2" class="node">
<title>7</title>
<ellipse fill="none" stroke="#000000" cx="176.3968" cy="-166" rx="18" ry="18"/>
<text text-anchor="middle" x="176.3968" y="-162.3" font-family="Times,serif" font-size="14.00" fill="#000000">7</text>
</g>
<!-- 3&#45;&gt;7 -->
<g id="edge2" class="edge">
<title>3&#45;&gt;7</title>
<path fill="none" stroke="#000000" d="M114.1506,-137.6347C124.8007,-142.4879 138.7974,-148.8661 150.8205,-154.345"/>
<polygon fill="#000000" stroke="#000000" points="149.3869,-157.5379 159.9379,-158.4998 152.2896,-151.1681 149.3869,-157.5379"/>
<text text-anchor="middle" x="136.8968" y="-152.8" font-family="Times,serif" font-size="14.00" fill="#000000">1</text>
</g>
<!-- 6 -->
<g id="node7" class="node">
<title>6</title>
<ellipse fill="none" stroke="#000000" cx="176.3968" cy="-111" rx="18" ry="18"/>
<text text-anchor="middle" x="176.3968" y="-107.3" font-family="Times,serif" font-size="14.00" fill="#000000">6</text>
</g>
<!-- 3&#45;&gt;6 -->
<g id="edge1" class="edge">
<title>3&#45;&gt;6</title>
<path fill="none" stroke="#000000" d="M114.9294,-125.7833C124.8831,-123.3894 137.5656,-120.3391 148.8222,-117.6318"/>
<polygon fill="#000000" stroke="#000000" points="149.7356,-121.0121 158.6399,-115.2706 148.0987,-114.2061 149.7356,-121.0121"/>
<text text-anchor="middle" x="136.8968" y="-124.8" font-family="Times,serif" font-size="14.00" fill="#000000">0</text>
</g>
<!-- 0 -->
<g id="node8" class="node">
<title>0</title>
<ellipse fill="none" stroke="#000000" cx="255.3968" cy="-111" rx="18" ry="18"/>
<text text-anchor="middle" x="255.3968" y="-107.3" font-family="Times,serif" font-size="14.00" fill="#000000">0</text>
</g>
<!-- 7&#45;&gt;0 -->
<g id="edge3" class="edge">
<title>7&#45;&gt;0</title>
<path fill="none" stroke="#000000" d="M191.2561,-155.6549C202.7318,-147.6655 218.8274,-136.4597 232.0238,-127.2723"/>
<polygon fill="#000000" stroke="#000000" points="234.397,-129.8849 240.6041,-121.2987 230.3973,-124.14 234.397,-129.8849"/>
<text text-anchor="middle" x="215.8968" y="-143.8" font-family="Times,serif" font-size="14.00" fill="#000000">1</text>
</g>
<!-- 2 -->
<g id="node3" class="node">
<title>2</title>
<ellipse fill="none" stroke="#000000" cx="97.3968" cy="-18" rx="18" ry="18"/>
<text text-anchor="middle" x="97.3968" y="-14.3" font-family="Times,serif" font-size="14.00" fill="#000000">2</text>
</g>
<!-- 5 -->
<g id="node4" class="node">
<title>5</title>
<ellipse fill="none" stroke="#000000" cx="176.3968" cy="-54" rx="18" ry="18"/>
<text text-anchor="middle" x="176.3968" y="-50.3" font-family="Times,serif" font-size="14.00" fill="#000000">5</text>
</g>
<!-- 2&#45;&gt;5 -->
<g id="edge4" class="edge">
<title>2&#45;&gt;5</title>
<path fill="none" stroke="#000000" d="M114.3208,-24.2009C122.3147,-27.254 131.9367,-31.1092 140.3968,-35 144.0485,-36.6794 147.8545,-38.5504 151.5661,-40.445"/>
<polygon fill="#000000" stroke="#000000" points="149.9742,-43.5622 160.4558,-45.1073 153.2254,-37.3631 149.9742,-43.5622"/>
<text text-anchor="middle" x="136.8968" y="-38.8" font-family="Times,serif" font-size="14.00" fill="#000000">1</text>
</g>
<!-- 5&#45;&gt;0 -->
<g id="edge5" class="edge">
<title>5&#45;&gt;0</title>
<path fill="none" stroke="#000000" d="M191.2561,-64.7213C202.8421,-73.0808 219.1374,-84.8382 232.4036,-94.41"/>
<polygon fill="#000000" stroke="#000000" points="230.4467,-97.3139 240.6041,-100.3268 234.5425,-91.6373 230.4467,-97.3139"/>
<text text-anchor="middle" x="215.8968" y="-87.8" font-family="Times,serif" font-size="14.00" fill="#000000">1</text>
</g>
<!-- &#45;1 -->
<g id="node5" class="node">
<title>&#45;1</title>
<ellipse fill="none" stroke="#000000" cx="18.1984" cy="-75" rx="18.399" ry="18.399"/>
<text text-anchor="middle" x="18.1984" y="-71.3" font-family="Times,serif" font-size="14.00" fill="#000000">&#45;1</text>
</g>
<!-- &#45;1&#45;&gt;3 -->
<g id="edge6" class="edge">
<title>&#45;1&#45;&gt;3</title>
<path fill="none" stroke="#000000" d="M33.4686,-85.6046C44.9364,-93.5684 60.8485,-104.6188 73.9285,-113.7023"/>
<polygon fill="#000000" stroke="#000000" points="72.2319,-116.7852 82.442,-119.6145 76.2248,-111.0357 72.2319,-116.7852"/>
<text text-anchor="middle" x="57.8968" y="-107.8" font-family="Times,serif" font-size="14.00" fill="#000000">1</text>
</g>
<!-- &#45;1&#45;&gt;2 -->
<g id="edge7" class="edge">
<title>&#45;1&#45;&gt;2</title>
<path fill="none" stroke="#000000" d="M33.095,-64.2787C44.7101,-55.9192 61.0463,-44.1618 74.3459,-34.59"/>
<polygon fill="#000000" stroke="#000000" points="76.495,-37.3555 82.567,-28.6732 72.4059,-31.674 76.495,-37.3555"/>
<text text-anchor="middle" x="57.8968" y="-52.8" font-family="Times,serif" font-size="14.00" fill="#000000">1</text>
</g>
<!-- 1 -->
<g id="node6" class="node">
<title>1</title>
<ellipse fill="none" stroke="#000000" cx="97.3968" cy="-75" rx="18" ry="18"/>
<text text-anchor="middle" x="97.3968" y="-71.3" font-family="Times,serif" font-size="14.00" fill="#000000">1</text>
</g>
<!-- &#45;1&#45;&gt;1 -->
<g id="edge8" class="edge">
<title>&#45;1&#45;&gt;1</title>
<path fill="none" stroke="#000000" d="M36.5672,-75C46.1632,-75 58.1207,-75 68.8883,-75"/>
<polygon fill="#000000" stroke="#000000" points="69.1277,-78.5001 79.1276,-75 69.1276,-71.5001 69.1277,-78.5001"/>
<text text-anchor="middle" x="57.8968" y="-78.8" font-family="Times,serif" font-size="14.00" fill="#000000">1</text>
</g>
<!-- 1&#45;&gt;5 -->
<g id="edge9" class="edge">
<title>1&#45;&gt;5</title>
<path fill="none" stroke="#000000" d="M112.4587,-64.493C118.6538,-60.7566 126.0829,-56.9862 133.3968,-55 137.9795,-53.7555 142.9389,-53.0675 147.8051,-52.7365"/>
<polygon fill="#000000" stroke="#000000" points="148.2077,-56.2284 158.1264,-52.5042 148.0501,-49.2302 148.2077,-56.2284"/>
<text text-anchor="middle" x="136.8968" y="-58.8" font-family="Times,serif" font-size="14.00" fill="#000000">0</text>
</g>
<!-- 1&#45;&gt;6 -->
<g id="edge10" class="edge">
<title>1&#45;&gt;6</title>
<path fill="none" stroke="#000000" d="M114.1506,-82.6347C124.8007,-87.4879 138.7974,-93.8661 150.8205,-99.345"/>
<polygon fill="#000000" stroke="#000000" points="149.3869,-102.5379 159.9379,-103.4998 152.2896,-96.1681 149.3869,-102.5379"/>
<text text-anchor="middle" x="136.8968" y="-97.8" font-family="Times,serif" font-size="14.00" fill="#000000">1</text>
</g>
<!-- 6&#45;&gt;0 -->
<g id="edge11" class="edge">
<title>6&#45;&gt;0</title>
<path fill="none" stroke="#000000" d="M194.7195,-111C204.2915,-111 216.2191,-111 226.9597,-111"/>
<polygon fill="#000000" stroke="#000000" points="227.1734,-114.5001 237.1734,-111 227.1733,-107.5001 227.1734,-114.5001"/>
<text text-anchor="middle" x="215.8968" y="-114.8" font-family="Times,serif" font-size="14.00" fill="#000000">1</text>
</g>
</g>
</svg>
